<svg xmlns="http://www.w3.org/2000/svg" fill="currentColor" viewBox="0 0 186.75 96">
  <g>
    <path fill="currentColor" d="M178.66,0c-4.47,0-8.09,3.62-8.09,8.09s3.62,8.09,8.09,8.09,8.09-3.62,8.09-8.09-3.62-8.09-8.09-8.09" />
    <path d="M172.61,24.11h12.09c.7,0,1.27,.57,1.27,1.27v46.82c0,.7-.57,1.27-1.27,1.27h-12.09c-.7,0-1.27-.57-1.27-1.27V25.38c0-.7,.57-1.27,1.27-1.27Z" />
    <path d="M141.3,24.11h-8.6c-.7,0-1.27,.57-1.27,1.27v7.31c0,3.34,2.71,6.05,6.05,6.05h3.82c5.64,0,10.91,4.52,10.91,10.9s-5.65,10.91-10.91,10.91-11.93-3.34-11.93-10.91v-4.85c0-3.34-2.71-6.05-6.05-6.05h-7.31c-.7,0-1.27,.57-1.27,1.27v54.73c0,.7,.57,1.27,1.27,1.27h12.09c.7,0,1.27-.57,1.27-1.27v-22.52c3.43,1.95,8.35,2.95,11.93,2.95,13.46,0,25.53-10.87,25.53-25.53s-11.73-25.53-25.53-25.53" />
    <path d="M110.57,24.11h-1.78c-13.8,0-25.53,11.25-25.53,25.53v22.56c0,.7,.57,1.27,1.27,1.27h12.09c.7,0,1.27-.57,1.27-1.27v-22.56c0-6.38,5.26-10.91,10.91-10.91h1.78c.7,0,1.27-.57,1.27-1.27v-12.09c0-.7-.57-1.27-1.27-1.27" />
    <path d="M39.32,5.14C17.64,5.14,0,22.78,0,44.46s17.64,39.32,39.32,39.32,39.32-17.64,39.32-39.32S61,5.14,39.32,5.14m-.03,63.43c-13.31,0-24.14-10.83-24.14-24.14s10.83-24.14,24.14-24.14,24.14,10.83,24.14,24.14-10.83,24.14-24.14,24.14" />
  </g>
</svg>
